<?xml version="1.0" encoding="utf-8"?>
<!-- Generator: Adobe Illustrator 24.1.2, SVG Export Plug-In . SVG Version: 6.00 Build 0)  -->
<svg class="logo" xmlns="http://www.w3.org/2000/svg" viewBox="0 0 100 100">
   <path class="logo-path" d="M10 10 L90 10 L90 90 L10 90 Z" />
</svg>
<style type="text/css">
	.st0{fill:#f0f0f0;}
</style>
<g>
	<path class="st0" d="M2614.22,2269.28c-0.04,0-0.07,0-0.11,0c0,202.02-0.01,404.04,0.04,606.06c0,7.67-1.42,15.8,3.13,22.68
		c16.55,25.04,36.43,47.83,60.66,64.85c27.4,19.24,53.37,40.69,83.11,56.77c20.24,10.94,38.74,25.08,58.67,36.65
		c13.97,8.11,20.38,3.8,20.13-12.38c-0.42-27.1-1.89-54.19-1.93-81.28c-0.19-163.77-0.15-327.55-0.08-491.32
		c0.03-63.63,1.33-127.26,1.53-190.87c0.46-152.18,2.07-304.37-0.5-456.56c-0.29-17.32-6.03-28.11-19.1-37.36
		c-15.74-11.14-31.11-22.78-46.57-34.32c-47.76-35.65-95.4-71.46-143.28-106.96c-11.19-8.3-14.74-6.23-15.6,8.01
		c-0.3,4.96-0.11,9.96-0.11,14.94C2614.22,1868.56,2614.22,2068.92,2614.22,2269.28z"/>
	<path class="st0" d="M3258.05,4260.52c6.72,2.07,8.94-0.87,11.2-3.04c67.69-64.91,142.02-122.57,200.01-198.02
		c35.52-46.22,68.56-93.39,94.21-145.25c18.28-36.95,28.12-76.91,30.47-118.96c3.27-58.51-8.85-113.3-36.59-163.94
		c-17.1-31.21-39.57-58.94-65.07-84.81c-56.55-57.35-119.2-106.38-187.79-147.97c-44.08-26.73-88.64-52.79-133.99-77.29
		c-59.57-32.17-119.33-64.2-180.5-93.13c-54.86-25.95-108.4-54.35-161.32-83.7c-57.59-31.94-116.16-62.59-168.35-103.76
		c-50.54-39.86-113.24-87.31-126.75-154.74c-5.58-27.85-11.44-87.97,12.67-108.76c2.47-2.13,5.38-6.06,0.01-10.72
		c-13.26,14.46-27.02,28.45-39.62,43.42c-43.7,51.86-78.89,108.82-56.8,178.54c22.29,70.35,77.94,130.27,134.33,175.44
		c32.8,26.27,70.7,46.23,106.53,68.67c37.66,23.59,75.2,47.4,113.44,70.01c45.33,26.8,91.01,53.06,137.17,78.41
		c55.05,30.23,107.94,63.93,161.38,96.82c42.77,26.33,86.16,52.32,124.88,83.8c63.92,51.96,122.79,109.57,166.38,180.92
		c20.68,33.85,35.63,71.07,42.31,108.59c10.81,60.72-0.02,121.23-23.65,179.02c-8.19,20.03-19.16,38.43-28.51,57.73
		c-16.39,33.84-37.29,64.6-60.87,93.65C3302.06,4207.57,3280.48,4233.35,3258.05,4260.52z"/>
	<path class="st0" d="M2933.61,2514.12c0.04,0,0.08,0,0.12,0c0,148.95,0.02,297.91-0.01,446.86c-0.01,45.96-0.07,91.92-0.35,137.88
		c-0.06,10.6,2.01,17.43,13.17,23.49c22.26,12.09,46.36,20.71,67.73,33.77c42.72,26.1,90.73,42,132.06,70.59
		c8.99,6.22,14.46,2.05,13.8-9.33c-0.67-11.6-1.01-23.23-1.01-34.85c-0.08-371.51-0.1-743.02-0.13-1114.53
		c0-12.04-2.47-24.39-11.85-31.57c-30.15-23.08-63.16-42-96.01-60.93c-30.41-17.52-58.81-38.45-90.88-53.22
		c-7.26-3.34-13.16-12.48-21.91-7.69c-8.12,4.44-4.6,14.05-4.61,21.43C2933.58,2128.72,2933.61,2321.42,2933.61,2514.12z"/>
	<path class="st0" d="M3472.3,2971.1c-0.37,0-0.74,0-1.11,0c0-109.62,0.14-219.24-0.07-328.86c-0.08-43.15,0.39-86.28-1.7-129.46
		c-1.95-40.31-2.37-80.99,0.98-121.13c1.93-23.14-6.21-35.41-23.36-48.05c-27.13-19.99-55.91-37.53-82.32-58.65
		c-32.29-25.81-66.59-49.12-100.07-73.45c-6.39-4.64-10.48-2.31-11.66,4.96c-0.7,4.32-0.39,8.83-0.34,13.25
		c1.33,101.27-1.63,202.55,1.94,303.85c1.87,52.93-1.73,106.03-1.84,159.05c-0.33,167.75-0.16,335.5-0.26,503.26
		c-0.01,20.48,1.38,41.19-1.26,61.36c-1.86,14.18,3.39,22.6,13.32,29.38c11.35,7.74,23.86,13.76,35.43,21.2
		c37.02,23.8,74.01,47.64,110.64,72.04c15.58,10.38,30.03,22.44,45.4,33.16c3.78,2.64,8.31,7.55,13.23,5.19
		c5.32-2.55,2.98-8.89,2.98-13.6C3472.32,3260.09,3472.3,3115.6,3472.3,2971.1z"/>
	<path class="st0" d="M2408.74,3133.11c8.3,96.69,37.28,184.18,125.56,247.25c30.85,22.04,60.24,45.94,91.6,67.45
		c32.61,22.37,66.32,43.01,99.82,63.64c54.38,33.5,112.59,60.77,167.1,94.09c39.94,24.41,81.96,45.26,120.59,71.81
		c34.02,23.38,69.93,44.36,102.06,70.08c63.35,50.71,125.95,102.98,166.59,175.24c24.24,43.09,50.1,86.16,46.82,138.79
		c-0.48,7.72-0.51,13.96,4.84,18.37c1.78-1.17,2.77-2.94,3.33-5.07c11.5-43.2,28.72-91.41,30.35-135.98
		c1.61-43.93-9.5-89.08-19-131.66c-5.19-23.25-19.04-46.49-32.29-67.72c-26.39-42.27-57.03-81.43-96.7-112.48
		c-46.06-36.05-94.58-67.9-146.07-96.23c-53.86-29.63-104.59-65.02-158.4-95.12c-40.78-22.81-80.76-47.24-121.7-69.59
		c-41.37-22.58-83.28-44.4-122.87-69.77c-49.13-31.48-99.43-61.59-141.58-103.12c-21.06-20.75-44.49-43.1-63.63-67.03
		c-21.16-26.45-30.47-54.18-45.24-83.55c-2.07-4.12-4.74-10.25-10.7-8.42c-5.13,1.57-3.4,7.57-3.42,11.74
		C2405.65,3075.45,2406.3,3104.68,2408.74,3133.11z"/>
</g>
</svg>
